#!OML:ASF F:\VICON\USERDATA\INSTALL\rory3\rory3.ASF
:FULLY-SPECIFIED
:DEGREES
794
root 0.227294 17.5394 -7.42783 7.75162 16.2886 3.86202
lowerback 5.98008 -1.21347 -1.9593
upperback 1.60445 -1.70169 1.21689
thorax -1.60404 -0.843195 2.47425
lowerneck -21.8382 -1.80343 -10.0962
upperneck 2.83757 0.364973 -0.503294
head 4.24696 0.00864036 1.45825
rclavicle 3.51849e-014 -1.27222e-014
rhumerus -44.9811 -17.3962 -64.7694
rradius 17.3428
rwrist 21.5336
rhand -21.018 -7.21567
rfingers 7.12502
rthumb 5.357 -37.128
lclavicle 3.51849e-014 -1.27222e-014
lhumerus -34.346 2.98291 83.5161
lradius 25.5196
lwrist -5.68371
lhand -5.77921 27.425
lfingers 7.12502
lthumb 20.0446 56.4111
rfemur -14.955 -6.77223 10.6212
rtibia 38.322
rfoot -29.3456 -14.949
rtoes -1.23022
lfemur -17.7278 1.54366 -15.6467
ltibia 29.0556
lfoot -13.5464 1.09443
ltoes -24.9219
795
root 0.297456 17.5321 -7.45244 7.60382 17.1817 3.83405
lowerback 6.69013 -1.36417 -1.69356
upperback 1.14804 -1.90026 1.04855
thorax -2.47342 -0.92776 2.19573
lowerneck -21.7217 -1.76212 -10.0022
upperneck 3.11469 0.397509 -0.585136
head 4.31777 0.00986259 1.4214
rclavicle 2.38542e-014 3.97569e-015
rhumerus -43.7542 -15.9696 -66.9999
rradius 16.9816
rwrist 22.0411
rhand -20.677 -7.05697
rfingers 7.12502
rthumb 5.68624 -36.9607
lclavicle 2.38542e-014 3.97569e-015
lhumerus -33.8763 1.80652 83.7254
lradius 26.2874
lwrist -6.15416
lhand -5.68597 27.1451
lfingers 7.12502
lthumb 20.1342 56.1217
rfemur -14.6041 -7.01433 10.4815
rtibia 38.473
rfoot -29.4128 -15.5367
rtoes -2.31096
lfemur -17.8499 0.912766 -15.7038
ltibia 29.2038
lfoot -13.7434 0.412413
ltoes -24.5999
796
root 0.365584 17.5283 -7.47583 7.40718 17.868 3.76459
lowerback 7.02828 -1.39855 -1.51535
upperback 0.97235 -1.94191 0.905502
thorax -2.85237 -0.944351 1.96565
lowerneck -21.9188 -1.79951 -9.77943
upperneck 3.43215 0.348129 -0.825682
head 4.45184 -0.0405401 1.30535
rclavicle 7.95139e-015 7.95139e-015
rhumerus -42.1608 -14.6911 -69.2142
rradius 16.8172
rwrist 22.9373
rhand -19.9381 -6.74496
rfingers 7.12502
rthumb 6.39953 -36.6283
lclavicle 7.95139e-015 7.95139e-015
lhumerus -32.7933 0.583244 83.9104
lradius 26.8576
lwrist -7.1227
lhand -5.34207 27.037
lfingers 7.12502
lthumb 20.4647 55.9786
rfemur -14.2822 -6.87045 10.3747
rtibia 38.6653
rfoot -29.4654 -16.2976
rtoes -3.39426
lfemur -17.8948 0.467352 -15.7214
ltibia 29.3964
lfoot -13.9898 -0.381969
ltoes -24.3604
797
root 0.431115 17.5214 -7.49458 7.16288 18.3181 3.65798
lowerback 6.99495 -1.34713 -1.55587
upperback 1.0197 -1.87676 0.877639
thorax -2.78736 -0.912736 1.9518
lowerneck -22.1065 -1.86507 -9.60494
upperneck 3.52744 0.273067 -1.13567
head 4.51469 -0.100369 1.17152
rclavicle 1.5207e-014 -1.90833e-014
rhumerus -40.2429 -13.0401 -71.4168
rradius 16.8885
rwrist 24.0818
rhand -19.1759 -5.75295
rfingers 7.12502
rthumb 7.13535 -35.6127
lclavicle 1.5207e-014 -1.90833e-014
lhumerus -31.3842 -0.670065 84.1526
lradius 27.4424
lwrist -8.1795
lhand -5.02253 26.6229
lfingers 7.12502
lthumb 20.7718 55.5311
rfemur -13.9783 -6.38554 10.3023
rtibia 38.8409
rfoot -29.5974 -17.0214
rtoes -3.70324
lfemur -17.882 0.317296 -15.7308
ltibia 29.6361
lfoot -14.218 -1.263
ltoes -24.1171
798
root 0.493613 17.5122 -7.50712 6.76391 18.6103 3.37774
lowerback 6.76555 -1.18267 -1.71188
upperback 1.2266 -1.66005 1.06243
thorax -2.44538 -0.808769 2.20085
lowerneck -22.1894 -2.0041 -9.70459
upperneck 3.42609 0.15414 -1.42157
head 4.50012 -0.175927 1.08323
rclavicle 4.03533e-014 -2.06736e-014
rhumerus -38.2746 -10.8042 -73.4215
rradius 17.354
rwrist 25.2956
rhand -18.691 -4.0622
rfingers 7.12502
rthumb 7.60339 -33.9055
lclavicle 4.03533e-014 -2.06736e-014
lhumerus -29.7784 -2.12151 84.5818
lradius 27.9942
lwrist -9.2866
lhand -4.76931 26.6344
lfingers 7.12502
lthumb 21.015 55.5158
rfemur -13.5723 -5.73149 10.4159
rtibia 38.9633
rfoot -29.8436 -17.649
rtoes -3.61378
lfemur -17.7347 0.505982 -15.6067
ltibia 29.8735
lfoot -14.3988 -2.00925
ltoes -23.8568
799
root 0.555143 17.507 -7.51744 6.40475 18.8592 3.16453
lowerback 6.63455 -1.06195 -1.7276
upperback 1.32413 -1.49825 1.07042
thorax -2.27919 -0.730963 2.19938
lowerneck -22.3991 -2.09 -9.80517
upperneck 3.51486 0.104783 -1.47085
head 4.56104 -0.209318 1.07686
rclavicle -3.27995e-015 -8.74653e-015
rhumerus -36.4767 -8.24531 -75.4796
rradius 18.0717
rwrist 26.5519
rhand -17.814 -1.96083
rfingers 7.12502
rthumb 8.44981 -31.7718
lclavicle -3.27995e-015 -8.74653e-015
lhumerus -28.3201 -3.99756 84.6762
lradius 28.6344
lwrist -10.1862
lhand -4.69296 27.7698
lfingers 7.12502
lthumb 21.0884 56.6431
rfemur -13.1797 -5.09461 10.461
rtibia 39.0502
rfoot -30.0782 -18.2077
rtoes -3.71602
lfemur -17.5807 0.793652 -15.6004
ltibia 30.0826
lfoot -14.5748 -2.518
ltoes -23.961
800
root 0.62998 17.5076 -7.51174 6.11636 18.6726 3.17374
lowerback 6.05422 -0.819768 -1.94288
upperback 1.58711 -1.18246 0.995277
thorax -1.69778 -0.582526 2.20189
lowerneck -22.7443 -2.15243 -9.88193
upperneck 3.566 0.101885 -1.57526
head 4.628 -0.222655 1.05306
rclavicle 4.17448e-015 -7.95139e-016
rhumerus -34.3087 -4.8814 -77.5727
rradius 18.861
rwrist 27.2496
rhand -16.4192 -0.051295
rfingers 7.12502
rthumb 9.79578 -29.8035
lclavicle 4.17448e-015 -7.95139e-016
lhumerus -26.6688 -6.23946 84.6301
lradius 29.5048
lwrist -10.613
lhand -5.11552 27.3467
lfingers 7.12502
lthumb 20.6824 56.2647
rfemur -12.8362 -4.29615 10.1804
rtibia 39.132
rfoot -30.1296 -18.6176
rtoes -3.94352
lfemur -17.1954 1.26514 -15.9087
ltibia 30.2249
lfoot -14.8442 -2.77427
ltoes -23.7665
801
root 0.700002 17.5121 -7.51487 5.94778 18.5825 3.24499
lowerback 5.62257 -0.641661 -2.16628
upperback 1.69303 -0.9524 0.897324
thorax -1.3581 -0.472989 2.20191
lowerneck -23.155 -2.1932 -9.92922
upperneck 3.809 0.139502 -1.71225
head 4.76496 -0.2273 1.01772
rclavicle -1.18277e-014 2.78299e-015
rhumerus -32.2382 -0.687295 -79.5397
rradius 19.8545
rwrist 27.6171
rhand -15.3693 1.57863
rfingers 7.12502
rthumb 10.8086 -28.1233
lclavicle -1.18277e-014 2.78299e-015
lhumerus -25.1845 -8.76621 84.3215
lradius 30.6667
lwrist -10.6062
lhand -4.80191 24.6121
lfingers 7.12502
lthumb 20.9837 53.497
rfemur -12.596 -3.61604 9.85658
rtibia 39.2397
rfoot -30.0782 -18.9865
rtoes -3.45025
lfemur -16.9206 1.56582 -16.2717
ltibia 30.2824
lfoot -15.0203 -2.9176
ltoes -23.3782
802
root 0.763389 17.5169 -7.52393 5.74841 18.6582 3.29056
lowerback 5.39451 -0.535287 -2.35816
upperback 1.70195 -0.818126 0.811222
thorax -1.22746 -0.407851 2.2091
lowerneck -23.4515 -2.20025 -9.86032
upperneck 3.97374 0.18674 -1.99159
head 4.86107 -0.232457 0.920387
rclavicle -6.55989e-015 -1.19271e-015
rhumerus -30.3835 3.83013 -81.0797
rradius 21.2084
rwrist 27.8627
rhand -14.1734 3.07527
rfingers 7.12502
rthumb 11.9619 -26.5629
lclavicle -6.55989e-015 -1.19271e-015
lhumerus -23.6874 -11.1397 83.6372
lradius 32.0215
lwrist -10.7061
lhand -3.39063 21.9362
lfingers 7.12502
lthumb 22.339 50.6647
rfemur -12.3386 -2.97631 9.61199
rtibia 39.3919
rfoot -30.0915 -19.3316
rtoes -2.05374
lfemur -16.6286 1.7135 -16.567
ltibia 30.2403
lfoot -15.1247 -3.01558
ltoes -23.1482
803
root 0.822973 17.5229 -7.52656 5.32818 18.5621 3.19622
lowerback 5.32542 -0.4111 -2.48402
upperback 1.70133 -0.658485 0.78421
thorax -1.1972 -0.328655 2.24137
lowerneck -23.6792 -2.16413 -9.90154
upperneck 4.10493 0.305731 -2.20454
head 4.93369 -0.198382 0.86918
rclavicle -1.0635e-014 -1.98785e-015
rhumerus -28.7406 8.58898 -82.0768
rradius 22.9689
rwrist 27.6553
rhand -12.5792 4.58318
rfingers 7.12502
rthumb 13.4988 -24.9593
lclavicle -1.0635e-014 -1.98785e-015
lhumerus -22.2596 -13.2104 82.629
lradius 33.5457
lwrist -11.2808
lhand -2.29782 19.2997
lfingers 7.12502
lthumb 23.3877 47.8987
rfemur -11.9894 -2.21119 9.52809
rtibia 39.593
rfoot -30.0201 -19.7412
rtoes -1.24523
lfemur -16.0752 1.84198 -16.6809
ltibia 30.1518
lfoot -15.2236 -3.07007
ltoes -22.8604
804
root 0.882117 17.5279 -7.52938 4.91483 18.3871 3.17028
lowerback 5.32756 -0.324317 -2.61552
upperback 1.67397 -0.551583 0.707247
thorax -1.23204 -0.274482 2.22969
lowerneck -24.0607 -2.06881 -10.0189
upperneck 4.33591 0.536821 -2.29753
head 5.05628 -0.108336 0.879607
rclavicle -1.56046e-014 6.75868e-015
rhumerus -27.1045 12.7145 -82.3964
rradius 25.1006
rwrist 27.4223
rhand -10.9956 6.14178
rfingers 7.12502
rthumb 15.0247 -23.2931
lclavicle -1.56046e-014 6.75868e-015
lhumerus -20.8176 -15.3421 81.2663
lradius 35.1269
lwrist -11.2758
lhand -1.1315 17.6784
lfingers 7.12502
lthumb 24.5062 46.1305
rfemur -11.7026 -1.54655 9.3589
rtibia 39.8547
rfoot -29.7034 -20.1458
rtoes -1.31946
lfemur -15.4577 1.88676 -16.8634
ltibia 29.9812
lfoot -15.2664 -3.06063
ltoes -22.4739
805
root 0.941121 17.5347 -7.53406 4.52322 18.3995 3.1708
lowerback 5.28775 -0.292092 -2.70958
upperback 1.64614 -0.514503 0.611409
thorax -1.24061 -0.255479 2.18137
lowerneck -24.446 -2.00571 -10.0544
upperneck 4.62104 0.714043 -2.46096
head 5.20015 -0.0519819 0.849352
rclavicle 6.70898e-014 -6.36111e-015
rhumerus -25.2987 15.9473 -81.9893
rradius 27.4099
rwrist 27.096
rhand -9.66864 7.63312
rfingers 7.12502
rthumb 16.3027 -21.7016
lclavicle 6.70898e-014 -6.36111e-015
lhumerus -19.1548 -17.4588 79.5673
lradius 36.7199
lwrist -10.5909
lhand -0.064066 17.1746
lfingers 7.12502
lthumb 25.529 45.4842
rfemur -11.3945 -1.15336 9.17178
rtibia 40.1578
rfoot -29.4645 -20.3873
rtoes -0.793312
lfemur -14.8436 1.77809 -17.0642
ltibia 29.7267
lfoot -15.2222 -3.05447
ltoes -21.8533
